<mxfile host="app.diagrams.net" modified="2023-10-10T11:29:47.643Z" agent="Mozilla/5.0 (X11; Ubuntu; Linux x86_64; rv:109.0) Gecko/20100101 Firefox/117.0" etag="7VoEtsm09A944zBRK-sy" version="21.8.2" type="device">
  <diagram name="Page-1" id="r0Li9xDxfgKoCE23kI79">
    <mxGraphModel dx="605" dy="350" grid="1" gridSize="10" guides="1" tooltips="1" connect="1" arrows="1" fold="1" page="1" pageScale="1" pageWidth="827" pageHeight="1169" math="0" shadow="0">
      <root>
        <mxCell id="0" />
        <mxCell id="1" parent="0" />
        <mxCell id="WRItgJMM82p5Qw252uki-1" value="Acquisition" style="shape=step;perimeter=stepPerimeter;whiteSpace=wrap;html=1;fixedSize=1;fontSize=14;fillColor=#f8cecc;strokeColor=#b85450;" vertex="1" parent="1">
          <mxGeometry x="50" y="150" width="120" height="50" as="geometry" />
        </mxCell>
        <mxCell id="WRItgJMM82p5Qw252uki-2" value="Traitement" style="shape=step;perimeter=stepPerimeter;whiteSpace=wrap;html=1;fixedSize=1;fontSize=14;fillColor=#fff2cc;strokeColor=#d6b656;" vertex="1" parent="1">
          <mxGeometry x="160" y="150" width="120" height="50" as="geometry" />
        </mxCell>
        <mxCell id="WRItgJMM82p5Qw252uki-3" value="Exploitation" style="shape=step;perimeter=stepPerimeter;whiteSpace=wrap;html=1;fixedSize=1;fontSize=14;fillColor=#dae8fc;strokeColor=#6c8ebf;" vertex="1" parent="1">
          <mxGeometry x="270" y="150" width="120" height="50" as="geometry" />
        </mxCell>
        <mxCell id="WRItgJMM82p5Qw252uki-4" value="Publication" style="shape=step;perimeter=stepPerimeter;whiteSpace=wrap;html=1;fixedSize=1;fontSize=14;fillColor=#d5e8d4;strokeColor=#82b366;" vertex="1" parent="1">
          <mxGeometry x="380" y="150" width="120" height="50" as="geometry" />
        </mxCell>
        <mxCell id="WRItgJMM82p5Qw252uki-6" value="&lt;div style=&quot;font-size: 11px;&quot;&gt;(rétro-)numérisation&lt;/div&gt;&lt;div style=&quot;font-size: 11px;&quot;&gt;collecte sur le web&lt;br style=&quot;font-size: 11px;&quot;&gt;&lt;/div&gt;" style="text;html=1;strokeColor=none;fillColor=none;align=center;verticalAlign=middle;whiteSpace=wrap;rounded=0;fontSize=11;" vertex="1" parent="1">
          <mxGeometry x="45" y="205" width="110" height="30" as="geometry" />
        </mxCell>
        <mxCell id="WRItgJMM82p5Qw252uki-7" value="&lt;div style=&quot;font-size: 11px;&quot;&gt;nettoyage&lt;/div&gt;&lt;div style=&quot;font-size: 11px;&quot;&gt;métadonnées&lt;/div&gt;&lt;div style=&quot;font-size: 11px;&quot;&gt;annotation&lt;br style=&quot;font-size: 11px;&quot;&gt;&lt;/div&gt;" style="text;html=1;strokeColor=none;fillColor=none;align=center;verticalAlign=middle;whiteSpace=wrap;rounded=0;fontSize=11;" vertex="1" parent="1">
          <mxGeometry x="155" y="211" width="110" height="30" as="geometry" />
        </mxCell>
        <mxCell id="WRItgJMM82p5Qw252uki-8" value="&lt;div style=&quot;font-size: 11px;&quot;&gt;édition&lt;/div&gt;&lt;div style=&quot;font-size: 11px;&quot;&gt;extraction d&#39;annotations&lt;/div&gt;&lt;div style=&quot;font-size: 11px;&quot;&gt;fouille de texte&lt;/div&gt;&lt;div style=&quot;font-size: 11px;&quot;&gt;alignement&lt;/div&gt;&lt;div style=&quot;font-size: 11px;&quot;&gt;traduction automatique&lt;/div&gt;&lt;div style=&quot;font-size: 11px;&quot;&gt;visualisation&lt;br style=&quot;font-size: 11px;&quot;&gt;&lt;/div&gt;" style="text;html=1;strokeColor=none;fillColor=none;align=center;verticalAlign=middle;whiteSpace=wrap;rounded=0;fontSize=11;" vertex="1" parent="1">
          <mxGeometry x="257" y="231" width="130" height="30" as="geometry" />
        </mxCell>
        <mxCell id="WRItgJMM82p5Qw252uki-9" value="&lt;div style=&quot;font-size: 11px;&quot;&gt;site web&lt;/div&gt;&lt;div style=&quot;font-size: 11px;&quot;&gt;application&lt;/div&gt;&lt;div style=&quot;font-size: 11px;&quot;&gt;plateforme&lt;/div&gt;&lt;div style=&quot;font-size: 11px;&quot;&gt;archive&lt;br style=&quot;font-size: 11px;&quot;&gt;&lt;/div&gt;" style="text;html=1;strokeColor=none;fillColor=none;align=center;verticalAlign=middle;whiteSpace=wrap;rounded=0;fontSize=11;" vertex="1" parent="1">
          <mxGeometry x="380" y="218" width="110" height="30" as="geometry" />
        </mxCell>
        <mxCell id="WRItgJMM82p5Qw252uki-12" value="" style="rounded=0;whiteSpace=wrap;html=1;fillColor=none;dashed=1;" vertex="1" parent="1">
          <mxGeometry x="154" y="140" width="240" height="150" as="geometry" />
        </mxCell>
      </root>
    </mxGraphModel>
  </diagram>
</mxfile>
